<?xml version="1.0" encoding="UTF-8"?>
<svg width="512" height="512" viewBox="0 0 512 512" fill="none" xmlns="http://www.w3.org/2000/svg">
    <!-- Background -->
    <rect width="512" height="512" fill="#4F46E5"/>
    
    <!-- Safe zone for maskable icons (centered with padding) -->
    <g transform="translate(156, 156) scale(0.8)">
        <!-- Dollar Sign Circle -->
        <circle cx="125" cy="125" r="125" fill="white" fill-opacity="0.1"/>
        
        <!-- Dollar Sign -->
        <path d="M125 50h-20V30h20c11 0 20-9 20-20s-9-20-20-20H85c-11 0-20 9-20 20v20H45c-11 0-20 9-20 20s9 20 20 20h20v60H45c-11 0-20 9-20 20s9 20 20 20h20v20c0 11 9 20 20 20h20c11 0 20-9 20-20v-20h20c11 0 20-9 20-20s-9-20-20-20h-20V90h20z" 
              fill="white"/>
        
        <!-- Rising Chart Line -->
        <path d="M45 170l30-30 40 20 45-45" 
              stroke="white" 
              stroke-width="8" 
              stroke-linecap="round" 
              stroke-linejoin="round"
              fill="none"/>
        
        <!-- Chart Dots -->
        <circle cx="45" cy="170" r="6" fill="white"/>
        <circle cx="75" cy="140" r="6" fill="white"/>
        <circle cx="115" cy="160" r="6" fill="white"/>
        <circle cx="160" cy="115" r="6" fill="white"/>
    </g>
</svg>
