<?xml version="1.0" encoding="UTF-8"?>
<svg width="512" height="512" viewBox="0 0 512 512" fill="none" xmlns="http://www.w3.org/2000/svg">
    <!-- Background Circle -->
    <circle cx="256" cy="256" r="256" fill="#4F46E5"/>
    
    <!-- Dollar Sign and Chart Design -->
    <g transform="translate(128, 128) scale(1)">
        <!-- Dollar Sign -->
        <path d="M160 96h-32V64h32c17.7 0 32-14.3 32-32s-14.3-32-32-32H96C78.3 0 64 14.3 64 32v32H32C14.3 64 0 78.3 0 96s14.3 32 32 32h32v96H32c-17.7 0-32 14.3-32 32s14.3 32 32 32h32v32c0 17.7 14.3 32 32 32h32c17.7 0 32-14.3 32-32v-32h32c17.7 0 32-14.3 32-32s-14.3-32-32-32h-32v-96h32z" 
              fill="white"/>
        
        <!-- Rising Chart Line -->
        <path d="M20 220l60-60 80 40 90-90" 
              stroke="white" 
              stroke-width="12" 
              stroke-linecap="round" 
              stroke-linejoin="round"
              fill="none"/>
        
        <!-- Chart Dots -->
        <circle cx="20" cy="220" r="8" fill="white"/>
        <circle cx="80" cy="160" r="8" fill="white"/>
        <circle cx="160" cy="200" r="8" fill="white"/>
        <circle cx="250" cy="110" r="8" fill="white"/>
    </g>
</svg>
