<svg width="400" height="400" viewBox="0 0 400 400" fill="none" xmlns="http://www.w3.org/2000/svg">
    <circle cx="200" cy="200" r="198" stroke="white" stroke-opacity="0.2" stroke-width="4"/>
    <circle cx="200" cy="200" r="161" stroke="white" stroke-opacity="0.2" stroke-width="4"/>
    <circle cx="200" cy="200" r="124" stroke="white" stroke-opacity="0.2" stroke-width="4"/>
    <g opacity="0.8">
        <path d="M200 120C155.817 120 120 155.817 120 200C120 244.183 155.817 280 200 280C244.183 280 280 244.183 280 200C280 155.817 244.183 120 200 120ZM200 260C166.863 260 140 233.137 140 200C140 166.863 166.863 140 200 140C233.137 140 260 166.863 260 200C260 233.137 233.137 260 200 260Z" fill="white"/>
        <path d="M220 180H180C174.477 180 170 184.477 170 190V210C170 215.523 174.477 220 180 220H220C225.523 220 230 215.523 230 210V190C230 184.477 225.523 180 220 180ZM210 210H190C187.239 210 185 207.761 185 205V195C185 192.239 187.239 190 190 190H210C212.761 190 215 192.239 215 195V205C215 207.761 212.761 210 210 210Z" fill="white"/>
    </g>
</svg>
